<svg xmlns="http://www.w3.org/2000/svg" height="255" width="729" viewBox="0 0 729 255" style="">
    <style>
        .form-rows-inner {
            display: table;
            width: 100%;
        }
        .form-rows .field {
            display: table-row;
        }
        .form-rows .label {
            padding-left: 32px;
        }
        .form-rows .label {
            background: none repeat scroll 0 0 #009D81;
            color: #FFFFFF;
            display: table-cell;
            padding: 0.5em 0.5em 0.5em 20px;
            vertical-align: middle;
            white-space: nowrap;
            width: 1px;
        }
        .form-rows .input {
            background: none repeat scroll 0 0 #ECECEC;
            display: table-cell;
            padding: 0 0.5em;
            vertical-align: middle;
        }
        .form-rows input[type="text"], .form-rows input[type="range"] {
            -moz-box-sizing: border-box;
            margin: 0;
            width: 100%;
        }
        input[type="range"] {
            -moz-appearance: range;
            -moz-binding: none;
            -moz-user-select: none !important;
            background: none repeat scroll 0 0 rgba(0, 0, 0, 0);
            border: medium none;
            cursor: default;
            display: inline-block;
            height: 1.3em;
            margin: 0 0.7em;
            width: 12em;
        }
        path {
            fill: none;
            stroke: #000;
            stroke-width: 2.7;
        }
        .shade { stroke-width: 20.7; stroke: #e5e5e5; }
        .letter { stroke-width: 3.2; } .bubble { stroke-width: 5; }
    </style>
    <path class="shade"
          d="M716 160l-27 53 30-94-47 94 42-121-61 115 57-124-79 133 78-143-101 146 96-153-126 156 122-168-145 168 137-168-169 172 168-188-186 178 170-183-202 197 185-201-212 200 192-202-214 198 192-198-213 196 189-196-207 194 185-194-203 193 172-193-186 189 162-191-175 187 146-184-165 180 140-179-155 173 133-174-142 166 123-167-128 161 100-161-110 167 91-174-99 170 63-151-49 123-22 27 8-26-26 29"
          style="stroke-dasharray: 10266.5, 10266.5; stroke-dashoffset: 0; transition: stroke-dashoffset 5s ease-in-out 16.2726s;"></path>
    <path d="M72.2 157s12.6-6.46 22.2-6.82c9.69-.359 18.7 1.08 18.7 1.08s-3.95-38.4-24.4-36.6c-20.5 1.79-14.7 34.4-12.6 38.4"
          style="stroke-dasharray: 136.549, 136.549; stroke-dashoffset: 0; transition: stroke-dashoffset 0.350563s ease-in-out 0s;"></path>
    <path d="M162 152s13.6-.718 19 0c5.38.718 13.3 4.66 13.3 4.66s8.61-35.5-7.53-39.1c-16.1-3.59-24.4 14.4-24.8 32.3"
          style="stroke-dasharray: 123.367, 123.367; stroke-dashoffset: 0; transition: stroke-dashoffset 0.333212s ease-in-out 0.450563s;"></path>
    <path d="M82.7 125c6.56-.193 7.14 5.79 7.33 8.69.193 2.9-.579 8.11-5.02 8.88-4.44.772-7.53-4.83-7.91-8.11-.338-2.87.802-7.81 4.07-9.13"
          style="stroke-dasharray: 47.2644, 47.2644; stroke-dashoffset: 0; transition: stroke-dashoffset 0.206247s ease-in-out 0.883775s;"></path>
    <path d="M188 126c-6.76-.386-8.3 6.56-8.49 8.88-.193 2.32 1.54 7.33 4.83 7.72 3.28.386 7.91-2.32 8.3-7.72.386-5.4-.579-6.76-2.9-8.49"
          style="stroke-dasharray: 45.6856, 45.6856; stroke-dashoffset: 0; transition: stroke-dashoffset 0.202773s ease-in-out 1.19002s;"></path>
    <path d="M150 133s-4.44 8.11-1.74 14.3c2.7 6.18 12.7 8.69 12.7 8.69s.772 7.14-2.9 9.46-7.72 3.28-8.3 4.83c-.579 1.54-.965 3.86-.965 3.86"
          style="stroke-dasharray: 54.7283, 54.7283; stroke-dashoffset: 0; transition: stroke-dashoffset 0.221936s ease-in-out 1.4928s;"></path>
    <path d="M132 159s-2.32 1.93-2.32 4.63l3.09 5.98"
          style="stroke-dasharray: 12.0598, 12.0598; stroke-dashoffset: 0; transition: stroke-dashoffset 0.104182s ease-in-out 1.81473s;"></path>
    <path d="M138 167s2.12-1.16 3.67-.965c1.54.193 3.47.579 3.47.579"
          style="stroke-dasharray: 7.3634, 7.3634; stroke-dashoffset: 0; transition: stroke-dashoffset 0.0814067s ease-in-out 2.01891s;"></path>
    <path d="M169 187s-9.07-1.93-14.7-1.93c-5.6 0-23.4 3.86-33 3.47-9.65-.386-15.6-4.83-15.6-4.83s4.83 11.2 11.2 18.3c6.37 7.14 11.4 17.2 26.2 17.6 14.9.386 17.4-10 17.6-10.6.193-.579.386-8.49 1.16-12.4.772-3.86 4.83-9.26 4.83-9.26"
          style="stroke-dasharray: 164.222, 164.222; stroke-dashoffset: 0; transition: stroke-dashoffset 0.384447s ease-in-out 2.20032s;"></path>
    <path d="M111 192s23.5 3.28 31.7 3.86c8.11.579 14.9.579 17.2-.772 2.32-1.35 4.44-4.63 4.44-4.63"
          style="stroke-dasharray: 55.7562, 55.7562; stroke-dashoffset: 0; transition: stroke-dashoffset 0.22401s ease-in-out 2.68477s;"></path>
    <path d="M122 207s10.8-2.32 15.4-1.93c4.63.386 7.72 5.79 7.72 5.79"
          style="stroke-dasharray: 25.5471, 25.5471; stroke-dashoffset: 0; transition: stroke-dashoffset 0.151632s ease-in-out 3.00878s;"></path>
    <path d="M143 207s3.47-1.16 6.56-.772c3.09.386 9.46 6.18 9.46 6.18"
          style="stroke-dasharray: 18.0572, 18.0572; stroke-dashoffset: 0; transition: stroke-dashoffset 0.127481s ease-in-out 3.26041s;"></path>
    <path class="letter" d="M409 62.2s-39.1 38.6-48.2 45.8"
          style="stroke-dasharray: 66.5022, 66.5022; stroke-dashoffset: 0; transition: stroke-dashoffset 0.163098s ease-in-out 3.48789s;"></path>
    <path class="letter" d="M374 62.2s28.2 42.1 36.9 49.7"
          style="stroke-dasharray: 61.9727, 61.9727; stroke-dashoffset: 0; transition: stroke-dashoffset 0.157445s ease-in-out 3.75099s;"></path>
    <path class="letter"
          d="M419 104s0-39.6 2.72-39.8c2.72-.247 17.3 23.5 19.5 23.5 2.23 0 6.93-25 8.66-25.2 1.73-.247 12.4 28 14.6 32.4 2.23 4.45 3.96 2.23 3.96 2.23"
          style="stroke-dasharray: 139.013, 139.013; stroke-dashoffset: 0; transition: stroke-dashoffset 0.235808s ease-in-out 4.00843s;"></path>
    <path class="letter" d="M471 63.2s-1.24 10.6-.742 22.8c.495 12.1 3.46 19.3 5.44 20 1.98.742 28.2-8.91 41.6-7.67"
          style="stroke-dasharray: 86.5393, 86.5393; stroke-dashoffset: 0; transition: stroke-dashoffset 0.186053s ease-in-out 4.34424s;"></path>
    <path class="letter"
          d="M554 98.1s-1.98-19.8.247-19.8 5.94 8.66 7.42 8.66 7.67-14.6 8.66-14.6c.989 0 6.43 21 12.1 23.3"
          style="stroke-dasharray: 75.5727, 75.5727; stroke-dashoffset: 0; transition: stroke-dashoffset 0.173865s ease-in-out 4.63029s;"></path>
    <path class="letter"
          d="M590 78.5s-.247-1.24-1.98-1.24-3.96 5.44-3.71 7.67c.247 2.23 2.23 5.69 4.95 6.18 2.72.495 7.92-5.94 7.42-9.89-.247.247 4.21 7.67 9.15 10.6"
          style="stroke-dasharray: 47.427, 47.427; stroke-dashoffset: 0; transition: stroke-dashoffset 0.137735s ease-in-out 4.90416s;"></path>
    <path class="letter"
          d="M616 78s-.989-.495-2.97-.495-6.68 4.21-6.18 8.41c.495 4.21 1.73 7.42 4.7 7.92 2.97.495 8.41-10.1 8.16-26-.247-15.8-1.98-25.5-4.7-25.2-2.72.247-4.95 26.5 17.1 41.8"
          style="stroke-dasharray: 127.771, 127.771; stroke-dashoffset: 0; transition: stroke-dashoffset 0.226072s ease-in-out 5.14189s;"></path>
    <path class="letter"
          d="M633 77.8s3.46 1.48 5.94 1.24c2.47-.247 4.7-4.21 5.19-6.93.495-2.72-.247-5.69-1.98-5.44-1.73.247-16.1 7.92-14.1 17.3 1.98 9.4 10.9 12.4 16.6 13.4 5.69.989 15.3-4.95 16.6-11.9"
          style="stroke-dasharray: 90.5426, 90.5426; stroke-dashoffset: 0; transition: stroke-dashoffset 0.190308s ease-in-out 5.46797s;"></path>
    <path class="letter"
          d="M323 170s2.72-18.8 5.94-18.1c3.22.742 4.7 12.4 6.18 12.9 1.48.495 7.92-10.1 9.89-9.89 1.98.247 5.94 16.8 5.94 16.8"
          style="stroke-dasharray: 66.5635, 66.5635; stroke-dashoffset: 0; transition: stroke-dashoffset 0.163173s ease-in-out 5.75827s;"></path>
    <path class="letter"
          d="M356 164s3.22 3.46 7.17.989c3.96-2.47 7.17-8.91 6.93-9.89-.247-.989-2.97-1.73-4.95-.989-1.98.742-7.67 3.46-6.68 8.66.989 5.19 7.17 13.4 15.6 12.9 8.41-.495 14.8-7.42 14.8-7.42"
          style="stroke-dasharray: 76.3156, 76.3156; stroke-dashoffset: 0; transition: stroke-dashoffset 0.174718s ease-in-out 6.02145s;"></path>
    <path class="letter" d="M416 153s6.93 19.5 8.41 20c1.48.495 11.9-17.6 12.1-30.7"
          style="stroke-dasharray: 55.4308, 55.4308; stroke-dashoffset: 0; transition: stroke-dashoffset 0.148904s ease-in-out 6.29616s;"></path>
    <path class="letter"
          d="M446 150c-12.4.247-10.1 11.6-10.1 12.6 0 .989 1.73 10.1 9.65 10.4 7.92.247 11.6-8.41 11.4-11.1-.247-2.72-1.73-11.4-8.16-11.9"
          style="stroke-dasharray: 67.5447, 67.5447; stroke-dashoffset: 0; transition: stroke-dashoffset 0.164371s ease-in-out 6.54507s;"></path>
    <path class="letter"
          d="M461 173s1.48-20.8 3.71-20.5c2.23.247 7.17 11.1 8.66 11.4 1.48.247 6.68-9.15 8.91-8.16 2.23.989 9.89 20.5 9.89 20.5"
          style="stroke-dasharray: 70.999, 70.999; stroke-dashoffset: 0; transition: stroke-dashoffset 0.168522s ease-in-out 6.80944s;"></path>
    <path class="letter" d="M496 151s3.22 6.18 3.46 9.4c.247 3.22 0 8.41 0 8.41"
          style="stroke-dasharray: 18.4778, 18.4778; stroke-dashoffset: 0; transition: stroke-dashoffset 0.0859717s ease-in-out 7.07796s;"></path>
    <path class="letter" d="M495 137l1.48 5.44"
          style="stroke-dasharray: 5.63774, 5.63774; stroke-dashoffset: 0; transition: stroke-dashoffset 0.0474878s ease-in-out 7.26393s;"></path>
    <path class="letter" d="M497 123s3.46 1.48 4.95 3.22c1.48 1.73 17.1 50.7 17.1 50.7"
          style="stroke-dasharray: 59.4701, 59.4701; stroke-dashoffset: 0; transition: stroke-dashoffset 0.154234s ease-in-out 7.41142s;"></path>
    <path class="letter" d="M521 152s-12.4 6.93-14.1 6.93"
          style="stroke-dasharray: 15.7452, 15.7452; stroke-dashoffset: 0; transition: stroke-dashoffset 0.0793604s ease-in-out 7.66565s;"></path>
    <path class="letter"
          d="M553 125s-2.47 23-1.24 28.4c1.24 5.44 5.69 16.3 13.1 14.8 7.42-1.48 10.4-8.16 9.4-11.9-.989-3.71-3.46-7.17-9.89-6.43-6.43.742-10.4 2.47-10.4 2.47"
          style="stroke-dasharray: 90.7642, 90.7642; stroke-dashoffset: 0; transition: stroke-dashoffset 0.19054s ease-in-out 7.84502s;"></path>
    <path class="letter" d="M577 122s2.72 26.7 8.91 41.1"
          style="stroke-dasharray: 42.1771, 42.1771; stroke-dashoffset: 0; transition: stroke-dashoffset 0.129888s ease-in-out 8.13556s;"></path>
    <path class="letter"
          d="M600 144s-9.15.495-8.16 5.94c.989 5.44 7.92 13.6 13.4 13.6 5.44 0 8.91-7.42 7.92-9.65-.989-2.23-4.21-7.42-5.69-7.67"
          style="stroke-dasharray: 55.1718, 55.1718; stroke-dashoffset: 0; transition: stroke-dashoffset 0.148555s ease-in-out 8.36544s;"></path>
    <path class="letter"
          d="M625 145s-3.22-2.23-4.95-1.73c-1.73.495-7.42 3.22-6.93 9.65.495 6.43 9.15 12.6 12.4 12.9 3.22.247 11.6-1.98 11.1-8.66-.495-6.68-3.96-9.65-6.68-12.1"
          style="stroke-dasharray: 67.1375, 67.1375; stroke-dashoffset: 0; transition: stroke-dashoffset 0.163875s ease-in-out 8.614s;"></path>
    <path class="letter"
          d="M652 146s-15.1 1.73-14.1 11.1c.989 9.4 8.41 7.67 8.41 7.67s15.6-4.53 12.1-34.4c-1.24-10.6-4.7-15.8-6.68-15.1-1.98.742-1.98 26.2 22.8 45.3"
          style="stroke-dasharray: 142.684, 142.684; stroke-dashoffset: 0; transition: stroke-dashoffset 0.238901s ease-in-out 8.87787s;"></path>
    <path class="letter" d="M676 99.8s6.68 38.3 9.15 42.8"
          style="stroke-dasharray: 43.8122, 43.8122; stroke-dashoffset: 0; transition: stroke-dashoffset 0.132382s ease-in-out 9.21677s;"></path>
    <path class="letter" d="M689 158l.742 3.96"
          style="stroke-dasharray: 4.02892, 4.02892; stroke-dashoffset: 0; transition: stroke-dashoffset 0.0401444s ease-in-out 9.44916s;"></path>
    <path class="bubble" d="M296 149s-39.6 32.9-60.4 37.4c-.989.495 55.2-6.93 73.2 4.95"
          style="stroke-dasharray: 145.815, 145.815; stroke-dashoffset: 0; transition: stroke-dashoffset 0.362262s ease-in-out 9.5893s;"></path>
    <path class="bubble"
          d="m307,190s-0.968,12.2,33.9,20.3c34.9,8.16,92.8,11.6,129,11.1,36.4-0.495,138-4.7,162-7.92,24.5-3.22,58.9,2.97,75-21s5.4-69.8,5.4-69.8-15-78.2-34.3-87.6c-5.44-3.22-115-7.42-142-7.42-27.7,0-111,0.495-111,0.495s-58.6-5.69-92.8,17.3c-34.1,23-36.9,105-36.9,105"
          style="stroke-dasharray: 1045.42, 1045.42; stroke-dashoffset: 0; transition: stroke-dashoffset 0.969987s ease-in-out 10.0516s;"></path>
    <path d="M69.8 211s-19.1-37.6-21.2-61.2c-2.12-23.5 6.18-67.7 42.5-67.6 36.3.193 57.9 41.5 60.6 47.1.579 1.16 19.1-38.4 42.1-38 13.5.386 25.5 23.5 25.5 23.5s-2.35-99.9-101-105c-74.1-3.67-97.1 83.2-97.1 83.2s-18.7 16.6-19.3 26.1c-.579 9.46 1.93 27.6 3.86 33.8 1.93 6.18 12.2 29 13.9 30.3 1.74 1.35 11.2 5.02 15.1 5.79 3.86.772 12 .965 12 .965l20.7 18.3"
          style="stroke-dasharray: 786.537, 786.537; stroke-dashoffset: 0; transition: stroke-dashoffset 0.841358s ease-in-out 11.1215s;"></path>
    <path d="M22.1 95s21.8 24.1 23.9 48.1c2.12 23.9 0 45.7 0 45.7"
          style="stroke-dasharray: 100.253, 100.253; stroke-dashoffset: 0; transition: stroke-dashoffset 0.300379s ease-in-out 12.0629s;"></path>
    <path d="M72.1 214l5.02-.965s-17.9-38-19.9-66.8c-1.93-28.8 12.5-56.2 34.2-55 21.6 1.16 46.3 17 53.8 41.7.772.386 6.37-2.32 6.37-2.32"
          style="stroke-dasharray: 226.627, 226.627; stroke-dashoffset: 0; transition: stroke-dashoffset 0.451624s ease-in-out 12.4633s;"></path>
    <path d="M162 116s17.4-20.5 30.7-17.4c13.3 3.09 11.6 6.76 11.6 6.76l-8.3 52.1s4.63 2.7 5.98 7.33l1.93 9.26s14.5-24.7 14.7-35.5c.193-10.8 1.35-19.3.965-21.6"
          style="stroke-dasharray: 183.209, 183.209; stroke-dashoffset: 0; transition: stroke-dashoffset 0.406065s ease-in-out 13.0149s;"></path>
    <path d="M204 177s-1.74 13.7-3.47 17.8c-1.74 4.05-18.3 28.2-24.9 33.2-6.56 5.02-22.8 24.9-34 25.3-11.2.386-30.9-9.84-39.4-15.2-8.49-5.4-29.3-22.6-29.3-22.6"
          style="stroke-dasharray: 182.523, 182.523; stroke-dashoffset: 0; transition: stroke-dashoffset 0.405304s ease-in-out 13.521s;"></path>
    <path d="M220 107s15.1 15.2 7.72 43.8c-7.33 28.6-8.11 30.3-10.6 32.4-2.51 2.12-14.1 10-14.1 10"
          style="stroke-dasharray: 97.9002, 97.9002; stroke-dashoffset: 0; transition: stroke-dashoffset 0.296834s ease-in-out 14.0263s;"></path>
    <path d="M67.1 125s6.95-14.7 19.9-15.6c22.2-1.35 16 5.79 25.1 7.33 9.07 1.54 8.49 0 8.49 0s-7.91-1.16-15.6-10.2c-7.72-9.07-17.9-7.72-21-7.33-3.09.386-17.8 7.33-17.2 23.5"
          style="stroke-dasharray: 136.038, 136.038; stroke-dashoffset: 0; transition: stroke-dashoffset 0.349906s ease-in-out 14.4231s;"></path>
    <path d="M165 117s12.9-9.07 18.5-8.49c5.6.579 11.2 6.37 11.2 6.37s-6.76-12.4-10-13.1c-3.28-.772-3.09 0-3.09 0"
          style="stroke-dasharray: 53.6899, 53.6899; stroke-dashoffset: 0; transition: stroke-dashoffset 0.21982s ease-in-out 14.873s;"></path>
    <path d="M132 228s6.18 4.63 11.8 4.83c5.6.193 9.07-4.44 9.07-4.44"
          style="stroke-dasharray: 23.3727, 23.3727; stroke-dashoffset: 0; transition: stroke-dashoffset 0.145036s ease-in-out 15.1928s;"></path>
    <path d="M75.4 17.4s15.8-15.8 22-16c6.18-.193 41.7 0 44.4 2.12l5.79 10.4"
          style="stroke-dasharray: 83.9927, 83.9927; stroke-dashoffset: 0; transition: stroke-dashoffset 0.274943s ease-in-out 15.4379s;"></path>
    <path d="M122 30.2s-1.16 18.7 2.51 22.4c3.67 3.67 17.9 16.6 26.6 15.6 8.69-.965 11.8-23.9 11.6-26.6-.193-2.7-12-27.4-27.2-24.9-15.2 2.51-13.3 11.2-13.3 11.2"
          style="stroke-dasharray: 143.832, 143.832; stroke-dashoffset: 0; transition: stroke-dashoffset 0.359789s ease-in-out 15.8128s;"></path>
</svg>
