
<svg xmlns="http://www.w3.org/2000/svg" version="1.1" width="300" height="330">
    <title>画一个象棋棋盘</title>
    <desc>有两下子</desc>
    <rect x="0" y="0" width="300" height="330" style="fill:#ffa500;fill-opacity:1;stroke-opacity:1"></rect>
    <rect width="240" height="270" x="30" y="30"
    style="fill-opacity:0;stroke-width:1.45%;stroke:black"></rect>
    <line x1="30" y1="60" x2="270" y2="60" style="stroke:black;stroke:black;stroke-width:1.45%;"></line>
<line x1="30" y1="90" x2="270" y2="90" style="stroke:black;stroke:black;stroke-width:1.45%;"></line>
<line x1="30" y1="120" x2="270" y2="120" style="stroke:black;stroke:black;stroke-width:1.45%;"></line>
<line x1="30" y1="150" x2="270" y2="150" style="stroke:black;stroke:black;stroke-width:1.45%;"></line>
<line x1="30" y1="180" x2="270" y2="180" style="stroke:black;stroke:black;stroke-width:1.45%;"></line>
<line x1="30" y1="210" x2="270" y2="210" style="stroke:black;stroke:black;stroke-width:1.45%;"></line>
<line x1="30" y1="240" x2="270" y2="240" style="stroke:black;stroke:black;stroke-width:1.45%;"></line>
<line x1="30" y1="270" x2="270" y2="270" style="stroke:black;stroke:black;stroke-width:1.45%;"></line>
<line x1="60" y1="30" x2="60" y2="150" style="stroke:black;stroke:black;stroke-width:1.45%;"></line>
<line x1="60" y1="180" x2="60" y2="300" style="stroke:black;stroke:black;stroke-width:1.45%;"></line>
<line x1="90" y1="30" x2="90" y2="150" style="stroke:black;stroke:black;stroke-width:1.45%;"></line>
<line x1="90" y1="180" x2="90" y2="300" style="stroke:black;stroke:black;stroke-width:1.45%;"></line>
<line x1="120" y1="30" x2="120" y2="150" style="stroke:black;stroke:black;stroke-width:1.45%;"></line>
<line x1="120" y1="180" x2="120" y2="300" style="stroke:black;stroke:black;stroke-width:1.45%;"></line>
<line x1="150" y1="30" x2="150" y2="150" style="stroke:black;stroke:black;stroke-width:1.45%;"></line>
<line x1="150" y1="180" x2="150" y2="300" style="stroke:black;stroke:black;stroke-width:1.45%;"></line>
<line x1="180" y1="30" x2="180" y2="150" style="stroke:black;stroke:black;stroke-width:1.45%;"></line>
<line x1="180" y1="180" x2="180" y2="300" style="stroke:black;stroke:black;stroke-width:1.45%;"></line>
<line x1="210" y1="30" x2="210" y2="150" style="stroke:black;stroke:black;stroke-width:1.45%;"></line>
<line x1="210" y1="180" x2="210" y2="300" style="stroke:black;stroke:black;stroke-width:1.45%;"></line>
<line x1="240" y1="30" x2="240" y2="150" style="stroke:black;stroke:black;stroke-width:1.45%;"></line>
<line x1="240" y1="180" x2="240" y2="300" style="stroke:black;stroke:black;stroke-width:1.45%;"></line>
<line x1="120" y1="30" x2="180" y2="90" style="stroke:black;stroke:black;stroke-width:1.45%;"></line>
<line x1="180" y1="30" x2="120" y2="90" style="stroke:black;stroke:black;stroke-width:1.45%;"></line>
<line x1="120" y1="300" x2="180" y2="240" style="stroke:black;stroke:black;stroke-width:1.45%;"></line>
<line x1="120" y1="240" x2="180" y2="300" style="stroke:black;stroke:black;stroke-width:1.45%;"></line>
</svg>
